<svg xmlns="http://www.w3.org/2000/svg" width="37.667" height="37.667" viewBox="0 0 37.667 37.667">
  <g id="language" transform="translate(0 0)">
    <path id="Path_50" data-name="Path 50" d="M35.569,10.188a19,19,0,0,0-5.6-6.541.553.553,0,1,0-.655.891A17.811,17.811,0,0,1,36.551,18.28H32.34V14.062A5.081,5.081,0,0,0,28.3,9.094,17.5,17.5,0,0,0,24.5,2.642a10.712,10.712,0,0,0-1.023-.917A17.6,17.6,0,0,1,27.206,3.2a.553.553,0,1,0,.523-.975A18.845,18.845,0,0,0,.847,24.434.553.553,0,0,0,1.9,24.105a17.7,17.7,0,0,1-.788-4.719H5.327v4.1a5.081,5.081,0,0,0,4,4.957,17.646,17.646,0,0,0,3.8,6.547,10.767,10.767,0,0,0,1.051.947A17.784,17.784,0,0,1,2.687,26.162a.553.553,0,1,0-1.007.458A18.837,18.837,0,1,0,35.569,10.188Zm-8.488-1.2H19.387V1.135a7.165,7.165,0,0,1,4.329,2.283A16.014,16.014,0,0,1,27.081,8.989Zm-8.8,0H10.585a16.012,16.012,0,0,1,3.367-5.571A7.164,7.164,0,0,1,18.28,1.135ZM1.116,18.28A17.761,17.761,0,0,1,14.186,1.726a10.711,10.711,0,0,0-1.022.916A17.5,17.5,0,0,0,9.369,9.094a5.081,5.081,0,0,0-4.043,4.968V18.28Zm5.317,5.2V14.062A3.971,3.971,0,0,1,10.4,10.1H27.267a3.971,3.971,0,0,1,3.967,3.967v9.423a3.971,3.971,0,0,1-3.967,3.967H10.4a3.971,3.971,0,0,1-3.967-3.967Zm4.106,5.073H18.28v7.975C15.169,36.214,12.276,33.238,10.539,28.557Zm12.942,7.384a14.44,14.44,0,0,0,3.957-5.265.553.553,0,0,0-1-.472c-1.786,3.784-4.331,6.056-7.051,6.328V28.557h7.881a5.079,5.079,0,0,0,5.073-5.073v-4.1h4.211a17.761,17.761,0,0,1-13.07,16.555Z" transform="translate(0)" fill="#fff"/>
    <path id="Path_51" data-name="Path 51" d="M246.975,164.948h7.419a18.973,18.973,0,0,1-2.419,3.548q-.139.163-.281.323a10.036,10.036,0,0,1-1.085-1.549.553.553,0,0,0-.968.535,11.351,11.351,0,0,0,1.294,1.828,16.129,16.129,0,0,1-2.647,2.215.553.553,0,1,0,.6.929,17.194,17.194,0,0,0,2.8-2.329l.169.168a12.808,12.808,0,0,0,2.857,2.153.553.553,0,0,0,.515-.979,11.682,11.682,0,0,1-2.6-1.964q-.094-.092-.185-.185.189-.211.375-.429a19.3,19.3,0,0,0,2.806-4.265H256.8a.553.553,0,0,0,0-1.106h-4.454v-2.108a.553.553,0,1,0-1.106,0v2.108h-4.264a.553.553,0,1,0,0,1.106Z" transform="translate(-228.293 -149.322)" fill="#fff"/>
    <path id="Path_52" data-name="Path 52" d="M129.132,198.6l.7,1.845a.553.553,0,0,0,1.035-.391l-3.338-8.845-.006-.015a.754.754,0,0,0-.7-.469h0a.754.754,0,0,0-.7.47l-.005.013-3.368,8.844a.553.553,0,1,0,1.034.394l.7-1.846Zm-2.314-6.131,1.9,5.025H124.9Z" transform="translate(-113.682 -176.691)" fill="#fff"/>
  </g>
</svg>
